<svg width="22" height="18" viewBox="0 0 22 18" fill="none" xmlns="http://www.w3.org/2000/svg">
<path d="M18.8531 9.75338H0.81543V7.90294H18.8531L13.0567 2.08145C12.8837 1.90771 12.7866 1.67208 12.7866 1.42639C12.7866 1.1807 12.8837 0.945065 13.0567 0.771334C13.2296 0.597602 13.4641 0.5 13.7087 0.5C13.9532 0.5 14.1878 0.597602 14.3607 0.771334L21.7283 8.1731C21.8141 8.25904 21.8821 8.36114 21.9285 8.47355C21.975 8.58595 21.9989 8.70646 21.9989 8.82816C21.9989 8.94985 21.975 9.07036 21.9285 9.18276C21.8821 9.29517 21.8141 9.39727 21.7283 9.48321L13.9923 17.2551C13.8194 17.4288 13.5849 17.5264 13.3403 17.5264C13.0957 17.5264 12.8612 17.4288 12.6883 17.2551C12.5153 17.0813 12.4182 16.8457 12.4182 16.6C12.4182 16.3543 12.5153 16.1187 12.6883 15.945L18.8531 9.75338Z" fill="#222222"/>
</svg>
