<svg
  width="16"
  height="16"
  viewBox="0 0 16 16"
  fill="none"
  xmlns="http://www.w3.org/2000/svg"
>
  <path
    d="M15.2454 14.023L12.3185 11.1048C13.2629 9.9017 13.7752 8.41608 13.7733 6.88667C13.7733 5.52462 13.3694 4.19315 12.6127 3.06064C11.856 1.92814 10.7805 1.04546 9.52209 0.52422C8.26371 0.00298386 6.87903 -0.133395 5.54315 0.132329C4.20727 0.398052 2.98018 1.05394 2.01706 2.01706C1.05394 2.98018 0.398052 4.20727 0.132329 5.54315C-0.133395 6.87903 0.00298386 8.26371 0.52422 9.52209C1.04546 10.7805 1.92814 11.856 3.06064 12.6127C4.19315 13.3694 5.52462 13.7733 6.88667 13.7733C8.41608 13.7752 9.9017 13.2629 11.1048 12.3185L14.023 15.2454C14.103 15.3261 14.1982 15.3901 14.3031 15.4338C14.408 15.4775 14.5205 15.5 14.6342 15.5C14.7478 15.5 14.8603 15.4775 14.9652 15.4338C15.0701 15.3901 15.1653 15.3261 15.2454 15.2454C15.3261 15.1653 15.3901 15.0701 15.4338 14.9652C15.4775 14.8603 15.5 14.7478 15.5 14.6342C15.5 14.5205 15.4775 14.408 15.4338 14.3031C15.3901 14.1982 15.3261 14.103 15.2454 14.023ZM1.72167 6.88667C1.72167 5.86513 2.02459 4.86653 2.59213 4.01715C3.15967 3.16777 3.96633 2.50576 4.91011 2.11483C5.85389 1.72391 6.8924 1.62162 7.89431 1.82091C8.89623 2.02021 9.81654 2.51213 10.5389 3.23446C11.2612 3.9568 11.7531 4.87712 11.9524 5.87903C12.1517 6.88094 12.0494 7.91945 11.6585 8.86323C11.2676 9.80701 10.6056 10.6137 9.75619 11.1812C8.90681 11.7488 7.90821 12.0517 6.88667 12.0517C5.51683 12.0517 4.20309 11.5075 3.23446 10.5389C2.26584 9.57025 1.72167 8.25652 1.72167 6.88667Z"
    fill="black"
  />
</svg>
