<svg width="16" height="16" viewBox="0 0 16 16" fill="none" xmlns="http://www.w3.org/2000/svg">
<path d="M7.99998 0.349976C3.78148 0.349976 0.349976 3.78148 0.349976 7.99998C0.349976 12.2185 3.78148 15.65 7.99998 15.65C12.2185 15.65 15.65 12.2185 15.65 7.99998C15.65 3.78148 12.2185 0.349976 7.99998 0.349976V0.349976ZM7.99998 14.35C5.98948 14.35 4.19748 13.408 3.03348 11.945C3.84428 10.8841 4.97532 10.1126 6.25898 9.74498C5.79678 9.45138 5.41616 9.04587 5.15238 8.56603C4.8886 8.08619 4.75019 7.54754 4.74998 6.99998C4.74998 5.20798 6.20798 3.74998 7.99998 3.74998C9.79198 3.74998 11.25 5.20798 11.25 6.99998C11.2495 7.54762 11.111 8.0863 10.8471 8.56619C10.5833 9.04608 10.2026 9.45168 9.74048 9.74547C11.0244 10.1129 12.1557 10.8843 12.9665 11.9455C11.8025 13.408 10.0105 14.35 7.99998 14.35Z" fill="#222222"/>
</svg>
