<svg width="16" height="16" viewBox="0 0 16 16" fill="none" xmlns="http://www.w3.org/2000/svg">
<path d="M7.752 0.25C9.80996 0.255827 11.7815 1.07784 13.2341 2.53567C14.6867 3.99349 15.5016 5.96804 15.5 8.026C15.4931 10.0372 14.7046 11.9669 13.3012 13.4074C11.8978 14.848 9.9893 15.6866 7.979 15.746L7.733 15.75C5.72144 15.7457 3.79035 14.9595 2.34786 13.5575C0.90537 12.1556 0.0645103 10.2476 0.00299999 8.237L0 7.992C0.00212059 5.93761 0.819847 3.96812 2.27346 2.51639C3.72707 1.06465 5.69761 0.249469 7.752 0.25ZM9.701 8.75H5.798C5.953 11.647 6.974 14.093 7.684 14.243L7.752 14.25C8.432 14.248 9.472 11.885 9.684 9.02L9.701 8.75ZM13.956 8.75H11.204C11.113 10.71 10.674 12.533 10.016 13.826C11.0309 13.4306 11.925 12.7771 12.6099 11.9302C13.2948 11.0832 13.7467 10.0722 13.921 8.997L13.956 8.75ZM4.295 8.75H1.545C1.68102 9.87243 2.11864 10.937 2.81134 11.8306C3.50404 12.7242 4.42592 13.4134 5.479 13.825C4.864 12.617 4.443 10.95 4.317 9.139L4.295 8.749V8.75ZM5.483 2.174L5.368 2.22C4.34179 2.64383 3.44685 3.33309 2.77501 4.21704C2.10318 5.10099 1.67865 6.14779 1.545 7.25H4.295C4.38 5.42 4.766 3.71 5.354 2.44L5.483 2.174ZM7.745 1.75C7.043 1.752 5.961 4.262 5.798 7.25H9.702C9.546 4.347 8.524 1.907 7.81 1.756L7.745 1.749V1.75ZM10.025 2.182L10.048 2.232C10.691 3.52 11.117 5.316 11.205 7.25H13.953C13.8144 6.13 13.3762 5.06812 12.6848 4.17621C11.9933 3.2843 11.0741 2.59538 10.024 2.182H10.025Z" fill="black"/>
</svg>
